<svg xmlns="http://www.w3.org/2000/svg" version="1.1" xmlns:xlink="http://www.w3.org/1999/xlink" xmlns:svgjs="http://svgjs.dev/svgjs" width="1000" height="1000" viewBox="0 0 1000 1000"><rect width="1000" height="1000" fill="#ffffff"></rect><g transform="matrix(0.7,0,0,0.7,149.5762142963746,231.2136022049537)"><svg viewBox="0 0 396 304" data-background-color="#ffffff" preserveAspectRatio="xMidYMid meet" height="767" width="1000" xmlns="http://www.w3.org/2000/svg" xmlns:xlink="http://www.w3.org/1999/xlink"><g id="tight-bounds" transform="matrix(1,0,0,1,0.23974162662238996,0.19048753484665326)"><svg viewBox="0 0 395.52 303.61836547531954" height="303.61836547531954" width="395.52"><g><svg viewBox="0 0 395.52 303.61836547531954" height="303.61836547531954" width="395.52"><g transform="matrix(1,0,0,1,0,199.737864302077)"><svg viewBox="0 0 395.52 103.88050117324251" height="103.88050117324251" width="395.52"><g><svg viewBox="0 0 395.52 103.88050117324251" height="103.88050117324251" width="395.52"><g><svg viewBox="0 0 395.52 103.88050117324251" height="103.88050117324251" width="395.52"><g transform="matrix(1,0,0,1,0,0)"><svg width="395.52" viewBox="2.1560959815979004 -30.284292221069336 154.8094482421875 40.65959930419922" height="103.88050117324251" data-palette-color="#ff5858"><path d="M20.189 9.926c-2.786 0.587-5.399 0.599-7.841 0.037-2.442-0.562-4.53-1.71-6.264-3.443-1.734-1.733-2.902-4.028-3.504-6.886v0c-0.419-1.99-0.527-4.219-0.325-6.687v0c0.483-5.307 2.036-9.388 4.657-12.242 2.62-2.861 5.691-4.663 9.214-5.405v0c1.892-0.398 3.628-0.468 5.209-0.208 1.581 0.26 3.096 0.789 4.544 1.588v0l1.123-1.32c0.753-0.888 1.408-1.53 1.965-1.926 0.557-0.397 1.217-0.675 1.98-0.836v0c0.828-0.174 1.532-0.132 2.112 0.127 0.573 0.261 0.933 0.74 1.079 1.438v0c0.077 0.365 0.089 0.744 0.035 1.138v0l-1.152 8.357c-0.112 0.957-0.338 1.662-0.679 2.115-0.334 0.452-0.919 0.766-1.753 0.941v0c-0.861 0.181-1.63 0.023-2.308-0.474-0.677-0.498-1.522-1.42-2.534-2.767v0c-1.124-1.392-1.987-2.286-2.589-2.684-0.607-0.39-1.39-0.484-2.349-0.282v0c-1.363 0.287-2.498 1.402-3.404 3.343-0.912 1.943-1.528 4.699-1.845 8.268v0c-0.273 3.007-0.21 5.457 0.188 7.349v0c0.349 1.657 0.926 2.827 1.73 3.508 0.805 0.682 1.738 0.911 2.802 0.688v0c1.559-0.328 2.771-0.948 3.635-1.859 0.864-0.911 1.702-2.075 2.514-3.493v0c0.512-0.871 0.939-1.526 1.282-1.967 0.338-0.432 0.739-0.697 1.202-0.795v0c0.6-0.126 1.296 0.04 2.088 0.501 0.79 0.454 1.229 0.984 1.317 1.593v0c0.193 0.722-0.156 1.975-1.048 3.756-0.892 1.782-2.28 3.505-4.164 5.169-1.891 1.665-4.196 2.785-6.917 3.358zM77.068-30.273c0.712-0.044 1.272 0.042 1.679 0.257 0.401 0.216 0.613 0.51 0.635 0.882v0c0.01 0.166-0.026 0.389-0.109 0.668v0c-0.085 0.239-0.216 0.457-0.39 0.656-0.175 0.198-0.336 0.345-0.484 0.44-0.148 0.096-0.253 0.179-0.315 0.25v0c-0.527 0.34-0.948 0.706-1.265 1.1-0.316 0.394-0.567 0.987-0.751 1.78v0l-4.897 22.274c-0.112 0.454-0.156 0.885-0.131 1.29v0c0.025 0.406 0.105 0.722 0.239 0.948 0.135 0.232 0.333 0.527 0.595 0.885v0c0.035 0.031 0.136 0.152 0.303 0.362 0.167 0.21 0.257 0.435 0.272 0.674v0c0.004 0.067-0.022 0.238-0.078 0.516v0c-0.137 0.483-0.436 0.832-0.897 1.047-0.468 0.216-1.174 0.353-2.119 0.411v0l-11.937 0.737c-0.712 0.044-1.268-0.042-1.669-0.257-0.407-0.209-0.623-0.516-0.648-0.922v0c-0.013-0.206 0.024-0.429 0.109-0.668v0c0.123-0.281 0.295-0.522 0.516-0.723 0.228-0.201 0.454-0.379 0.679-0.533v0c0.527-0.333 0.948-0.706 1.263-1.12 0.316-0.407 0.564-1.027 0.747-1.86v0l1.922-8.635-8.993 0.556-1.922 8.634c-0.106 0.454-0.146 0.884-0.121 1.29v0c0.025 0.406 0.105 0.722 0.239 0.947 0.135 0.232 0.33 0.527 0.586 0.886v0c0.035 0.031 0.136 0.152 0.303 0.362 0.167 0.21 0.257 0.435 0.272 0.674v0c0.004 0.067-0.019 0.238-0.069 0.516v0c-0.137 0.483-0.44 0.832-0.907 1.047-0.461 0.215-1.164 0.352-2.109 0.411v0l-11.937 0.737c-0.712 0.044-1.272-0.042-1.679-0.257-0.4-0.209-0.613-0.517-0.638-0.923v0c-0.013-0.206 0.024-0.429 0.109-0.668v0c0.116-0.281 0.288-0.522 0.516-0.723 0.228-0.201 0.454-0.379 0.679-0.533v0c0.527-0.333 0.948-0.706 1.263-1.119 0.309-0.406 0.558-1.026 0.747-1.86v0l4.897-22.274c0.106-0.447 0.146-0.874 0.122-1.28v0c-0.023-0.373-0.099-0.685-0.228-0.938-0.135-0.245-0.317-0.531-0.544-0.858v0c-0.143-0.158-0.271-0.327-0.382-0.507-0.118-0.18-0.183-0.373-0.196-0.579v0c-0.004-0.067 0.022-0.235 0.079-0.506v0c0.106-0.454 0.389-0.789 0.849-1.004 0.461-0.215 1.167-0.353 2.119-0.412v0l11.937-0.736c0.712-0.044 1.268 0.042 1.669 0.257 0.407 0.215 0.623 0.509 0.646 0.882v0c0.01 0.166-0.026 0.389-0.109 0.668v0c-0.092 0.239-0.226 0.458-0.401 0.656-0.175 0.198-0.336 0.345-0.483 0.441-0.141 0.096-0.246 0.179-0.315 0.25v0c-0.52 0.339-0.938 0.706-1.255 1.099-0.316 0.394-0.567 0.987-0.752 1.78v0l-1.881 8.482 8.993-0.555 1.871-8.482c0.113-0.448 0.156-0.875 0.131-1.28v0c-0.023-0.373-0.102-0.685-0.238-0.937-0.135-0.245-0.313-0.532-0.534-0.859v0c-0.15-0.158-0.281-0.327-0.392-0.507-0.111-0.18-0.173-0.373-0.186-0.58v0c-0.004-0.067 0.019-0.235 0.069-0.505v0c0.106-0.454 0.389-0.789 0.85-1.004 0.468-0.216 1.174-0.353 2.119-0.411v0zM112.923-17.329l-6.243 16.885c-0.173 0.435-0.275 0.872-0.308 1.311v0c-0.028 0.372 0.003 0.689 0.09 0.949 0.081 0.26 0.176 0.471 0.284 0.633 0.108 0.162 0.177 0.277 0.205 0.346v0c0.307 0.364 0.448 0.715 0.424 1.054v0c-0.005 0.066-0.051 0.234-0.138 0.501v0c-0.168 0.462-0.488 0.769-0.96 0.922-0.466 0.153-1.174 0.194-2.125 0.123v0l-12.027-0.89c-0.711-0.053-1.254-0.213-1.629-0.481-0.368-0.261-0.538-0.595-0.508-1v0c0.015-0.206 0.081-0.422 0.199-0.648v0c0.12-0.265 0.279-0.467 0.476-0.606 0.197-0.139 0.473-0.299 0.827-0.48v0c0.567-0.259 1.034-0.562 1.401-0.909 0.367-0.347 0.698-0.938 0.994-1.772v0l1.639-4.261-7.909-0.585-1.59 2.79c-0.664 1.208-1.023 2.167-1.075 2.879v0c-0.03 0.406 0.012 0.74 0.126 1.002 0.114 0.262 0.298 0.54 0.55 0.833v0c0.219 0.29 0.362 0.531 0.428 0.723 0.073 0.193 0.064 0.439-0.025 0.741v0c-0.17 0.495-0.475 0.821-0.914 0.975-0.439 0.155-1.114 0.198-2.026 0.131v0l-7.559-0.56c-0.785-0.058-1.369-0.245-1.753-0.561-0.384-0.323-0.558-0.72-0.524-1.192v0c0.04-0.539 0.268-0.956 0.685-1.252 0.409-0.291 1.017-0.593 1.822-0.908v0c1.055-0.43 1.906-0.868 2.554-1.316 0.641-0.447 1.217-1.093 1.727-1.937v0l10.412-18.061c1.605-2.809 3.397-4.796 5.374-5.96 1.971-1.164 4.496-1.633 7.574-1.405v0c3.451 0.255 6.071 1.155 7.863 2.698 1.791 1.55 2.593 3.574 2.408 6.074v0c-0.078 1.05-0.327 2.122-0.749 3.214zM90.324-11.14l7.101 0.525 3.354-8.736c0.163-0.396 0.261-0.813 0.293-1.252v0c0.048-0.645-0.093-1.14-0.421-1.485-0.335-0.352-0.821-0.552-1.46-0.599v0c-0.811-0.06-1.524 0.128-2.138 0.563-0.613 0.429-1.251 1.231-1.912 2.406v0zM154.608-19.893c1.83 0.368 2.595 1.3 2.294 2.797v0c-0.095 0.471-0.313 1.035-0.657 1.694v0l-2.007 3.799c-0.613 1.155-1.234 1.928-1.863 2.318-0.637 0.396-1.456 0.493-2.456 0.292v0c-0.83-0.167-1.427-0.511-1.792-1.033-0.356-0.527-0.641-1.295-0.853-2.303v0l-0.441-2.22c-0.142-0.681-0.336-1.169-0.583-1.464-0.253-0.296-0.697-0.507-1.331-0.634v0l-1.147-0.231-10.815 21.032c-0.193 0.417-0.322 0.789-0.387 1.116v0c-0.08 0.399-0.088 0.744-0.024 1.035 0.064 0.292 0.183 0.611 0.358 0.96v0c0.201 0.523 0.271 0.935 0.21 1.235v0c-0.013 0.065-0.079 0.225-0.198 0.481v0c-0.25 0.399-0.637 0.647-1.16 0.746-0.524 0.105-1.234 0.068-2.129-0.112v0l-11.726-2.356c-0.699-0.141-1.218-0.367-1.557-0.679-0.333-0.305-0.456-0.676-0.368-1.115v0c0.039-0.196 0.128-0.386 0.268-0.568v0c0.196-0.267 0.398-0.457 0.604-0.572 0.213-0.114 0.526-0.251 0.94-0.413v0c0.564-0.2 1.049-0.449 1.456-0.748 0.407-0.299 0.802-0.808 1.184-1.527v0l10.775-21.04-1.157-0.232c-0.732-0.147-1.354-0.15-1.865-0.008-0.511 0.142-1.095 0.474-1.75 0.995v0l-2.059 1.718c-0.945 0.742-1.822 1.266-2.631 1.573-0.803 0.308-1.623 0.378-2.46 0.209v0c-0.765-0.154-1.323-0.473-1.674-0.958-0.351-0.485-0.457-1.078-0.316-1.777v0c0.067-0.333 0.19-0.69 0.368-1.069v0l2.216-4.277c0.449-0.882 0.889-1.532 1.319-1.948 0.429-0.41 0.973-0.665 1.632-0.764 0.658-0.092 1.555-0.024 2.693 0.205v0z" opacity="1" transform="matrix(1,0,0,1,0,0)" fill="#000000" class="undefined-text-0" data-fill-palette-color="primary" id="text-0"></path></svg></g></svg></g></svg></g></svg></g><g transform="matrix(1,0,0,1,88.29567873299168,0)"><svg viewBox="0 0 218.92864253401663 168.07865089830636" height="168.07865089830636" width="218.92864253401663"><g><svg xmlns="http://www.w3.org/2000/svg" xmlns:xlink="http://www.w3.org/1999/xlink" version="1.1" x="0" y="0" viewBox="21.67500114440918 28.653003692626953 55.44898986816406 42.56999588012695" enable-background="new 0 0 100 100" xml:space="preserve" height="168.07865089830636" width="218.92864253401663" class="icon-icon-0" data-fill-palette-color="accent" id="icon-0"><g fill="#ff5858" data-fill-palette-color="accent"><g fill="#ff5858" data-fill-palette-color="accent"><g fill="#ff5858" data-fill-palette-color="accent"><path d="M61.287 67.735c-5.468 0-10.407-1.904-13.254-4.713-1.603-1.565-2.546-3.45-2.546-5.411 0-5.449 7.24-10.105 15.8-10.105 3.959 0 7.636 0.98 10.444 2.583 3.281 1.885 5.393 4.6 5.393 7.522 0 3.45-0.792 5.543-5.091 7.428-0.471 0.208-1.357 0.584-2.111 6.184l-5.788-3.582-0.396 0.057c-0.51 0.075-0.735 0.075-0.924 0.075-0.133 0-0.265 0-0.415-0.019C62.136 67.754 61.796 67.735 61.287 67.735z" fill="#000000" data-fill-palette-color="accent"></path><path d="M44.563 62.965c-1.149-0.075-2.262-0.208-3.355-0.377l-6.392 5.6-1.471-7.862c-7.032-3.054-11.67-8.39-11.67-14.479 0-9.483 11.388-17.194 25.414-17.194 14.046 0 25.434 7.711 25.434 17.194 0 0.49-0.019 0.961-0.094 1.414-3.055-1.622-6.92-2.583-11.143-2.583-10.237 0-18.288 5.694-18.288 12.934C42.999 59.515 43.564 61.344 44.563 62.965z" fill="#000000" data-fill-palette-color="accent"></path></g></g></g></svg></g></svg></g><g></g></svg></g><defs></defs></svg><rect width="395.52" height="303.61836547531954" fill="none" stroke="none" visibility="hidden"></rect></g></svg></g></svg>